<svg version="1.1" viewBox="0.0 0.0 960.0 720.0" fill="none" stroke="none" stroke-linecap="square" stroke-miterlimit="10" xmlns:xlink="http://www.w3.org/1999/xlink" xmlns="http://www.w3.org/2000/svg"><clipPath id="p.0"><path d="m0 0l960.0 0l0 720.0l-960.0 0l0 -720.0z" clip-rule="nonzero"/></clipPath><g clip-path="url(#p.0)"><path fill="#000000" fill-opacity="0.0" d="m0 0l960.0 0l0 720.0l-960.0 0z" fill-rule="evenodd"/><path fill="#efefef" d="m200.0 161.33368l0 0c0 -9.57312 7.760559 -17.33368 17.33368 -17.33368l157.33264 0c4.597168 0 9.006073 1.8262177 12.256775 5.0769196c3.2506714 3.2506866 5.0769043 7.6595764 5.0769043 12.25676l0 69.33264c0 9.57312 -7.760559 17.33368 -17.33368 17.33368l-157.33264 0c-9.57312 0 -17.33368 -7.760559 -17.33368 -17.33368z" fill-rule="evenodd"/><path fill="#000000" fill-opacity="0.0" d="m168.0 120.0l256.0 0l0 148.6614l-256.0 0z" fill-rule="evenodd"/><path fill="#38761d" d="m230.47058 170.72812l0 35.421875q0 6.421875 2.859375 8.875q2.875 2.4375 8.71875 2.4375q5.84375 0 8.828125 -2.6875q3.0 -2.6875 3.0 -8.09375l0 -36.9375l-6.1875 -0.3125l0 -13.390625l29.703125 0l0 12.890625l-5.515625 0.484375q-1.09375 0.125 -1.09375 1.0l0 38.078125q0 11.40625 -7.96875 17.859375q-7.96875 6.4375 -21.578125 6.4375q-13.59375 0 -20.859375 -6.3125q-7.25 -6.3125 -7.25 -19.6875l0 -37.046875l-6.1875 -0.3125l0 -13.390625l30.25 0l0 12.890625l-5.5 0.484375q-0.953125 0.125 -1.09375 0.25q-0.125 0.109375 -0.125 1.0625zm71.26672 46.640625q10.578125 0 10.578125 -8.03125q0 -3.890625 -4.390625 -5.890625q-2.828125 -1.40625 -7.53125 -2.671875q-4.703125 -1.265625 -8.046875 -2.6875q-3.34375 -1.421875 -6.75 -3.921875q-7.1875 -5.359375 -7.1875 -16.1875q0 -10.84375 7.46875 -17.03125q7.484375 -6.1875 19.0625 -6.1875q11.59375 0 22.6875 5.1875l0 19.484375l-15.3125 1.03125l0 -8.5625q0 -1.015625 -0.125 -1.25q-0.53125 -0.890625 -5.875 -0.890625q-5.34375 0 -7.640625 1.6875q-2.296875 1.6875 -2.296875 5.265625q0 2.484375 1.90625 4.40625q1.34375 1.328125 4.4375 2.359375q3.109375 1.03125 6.953125 2.234375q3.859375 1.1875 6.96875 2.65625q3.109375 1.46875 6.46875 4.0625q7.40625 5.4375 7.40625 16.5625q0 11.125 -7.921875 17.46875q-7.921875 6.328125 -20.34375 6.328125q-12.40625 0 -23.53125 -5.1875l0 -20.34375l15.3125 -1.03125l0 8.875q0 1.0 0.0625 1.125q0.078125 0.109375 1.6875 0.625q1.609375 0.515625 5.953125 0.515625zm31.377716 14.03125l0 -12.890625l5.515625 -0.484375q1.09375 -0.125 1.09375 -0.796875l0 -47.484375l-6.078125 -0.3125l0 -13.390625l55.953125 0l0 22.0l-15.3125 1.046875l0 -6.640625q0 -1.109375 0 -1.09375q0.015625 0 -0.875 0l-16.234375 0l0 14.4375l26.234375 0l0 15.3125l-26.234375 0l0 16.546875l9.5 0.328125l0 13.421875l-33.5625 0z" fill-rule="nonzero"/></g></svg>