<?xml version="1.0" standalone="no"?>
<!DOCTYPE svg PUBLIC "-//W3C//DTD SVG 20010904//EN"
 "http://www.w3.org/TR/2001/REC-SVG-20010904/DTD/svg10.dtd">
<svg version="1.0" xmlns="http://www.w3.org/2000/svg"
 width="614.000000pt" height="282.000000pt" viewBox="0 0 614.000000 282.000000"
 preserveAspectRatio="xMidYMid meet">
<metadata>
Created by potrace 1.16, written by Peter Selinger 2001-2019
</metadata>
<g transform="translate(0.000000,282.000000) scale(0.100000,-0.100000)"
fill="#000000" stroke="none">
<path d="M3295 2706 c-291 -49 -476 -173 -584 -394 -46 -92 -64 -182 -63 -317
0 -143 16 -217 74 -327 79 -153 212 -265 444 -374 337 -159 384 -185 449 -248
80 -78 102 -138 86 -236 -22 -134 -103 -214 -262 -255 -50 -14 -89 -16 -179
-12 -167 8 -280 44 -473 150 -64 35 -96 47 -120 45 -52 -5 -62 -38 -62 -203 0
-171 9 -196 95 -254 124 -82 335 -139 553 -148 476 -20 829 180 946 535 44
134 46 356 5 479 -44 133 -153 269 -283 357 -38 25 -132 76 -208 112 -424 203
-465 228 -521 322 -23 40 -27 58 -26 117 1 158 107 252 295 263 146 8 247 -18
437 -110 106 -52 127 -59 147 -50 36 17 47 76 43 228 -3 115 -6 136 -24 161
-39 53 -181 115 -339 148 -106 23 -327 28 -430 11z"/>
<path d="M288 2680 c-60 -10 -97 -25 -110 -44 -11 -17 -9 -1639 2 -1726 51
-392 266 -643 634 -739 172 -45 478 -53 659 -17 456 91 702 380 737 865 15
212 13 1580 -3 1611 -20 39 -75 52 -222 54 -152 1 -214 -7 -249 -35 l-26 -20
0 -807 c0 -895 0 -886 -65 -1019 -82 -166 -235 -253 -445 -253 -217 1 -367 84
-450 253 -69 139 -69 141 -70 1033 0 758 -1 792 -19 808 -10 9 -33 21 -52 27
-48 14 -253 20 -321 9z"/>
<path d="M4731 2670 c-48 -11 -84 -41 -98 -81 -16 -46 -18 -2340 -2 -2371 18
-34 76 -50 199 -55 124 -6 239 8 277 33 l23 14 2 483 3 482 400 5 400 5 20 40
c16 33 19 61 19 155 1 123 -13 183 -44 200 -12 6 -170 10 -409 10 l-391 0 2
333 3 332 425 5 425 5 17 34 c23 46 32 164 20 258 -9 65 -15 82 -37 101 l-26
22 -597 -1 c-328 -1 -612 -5 -631 -9z"/>
<path d="M1159 1774 c-49 -53 -232 -124 -319 -124 -19 0 -46 -3 -58 -7 l-24
-6 4 -251 c4 -246 5 -253 33 -335 61 -178 193 -323 351 -386 39 -15 44 -15 95
5 126 50 244 162 308 295 61 125 71 188 71 454 l0 231 -49 0 c-109 0 -228 38
-326 105 l-63 43 -23 -24z m225 -500 c9 -8 16 -31 16 -50 0 -32 -2 -34 -35
-34 -28 0 -35 -4 -35 -20 0 -16 7 -20 35 -20 24 0 35 -5 35 -15 0 -10 -11 -15
-35 -15 -28 0 -35 -4 -35 -20 0 -16 7 -20 35 -20 24 0 35 -5 35 -15 0 -10 -11
-15 -35 -15 -28 0 -35 -4 -35 -20 0 -16 7 -20 35 -20 22 0 35 -5 35 -13 0 -33
-23 -37 -212 -37 -175 0 -188 1 -198 19 -5 11 -10 78 -10 150 0 170 -12 161
217 161 143 0 174 -3 187 -16z"/>
<path d="M1162 1168 c-15 -15 -16 -54 -2 -63 6 -3 10 -26 10 -51 0 -37 3 -44
20 -44 17 0 20 7 20 40 0 23 7 51 15 63 13 20 13 25 -1 45 -17 24 -43 29 -62
10z"/>
</g>
</svg>
